<?xml version="1.0" encoding="UTF-8"?>
<svg xmlns="http://www.w3.org/2000/svg" xmlns:xlink="http://www.w3.org/1999/xlink" width="32pt" height="22pt" viewBox="0 0 32 22" version="1.1">
<path fill="#63D1BB" d="M 20 11 C 20 10.445313 19.554688 10 19 10 L 15 10 C 14.445313 10 14 10.445313 14 11 C 14 11.554688 14.445313 12 15 12 L 19 12 C 19.554688 12 20 11.554688 20 11 M 12 10 L 4 10 L 4 18 L 12 18 Z M 24 10 L 24 18 C 24 20.207031 22.210938 22 20 22 L 4 22 C 1.792969 22 0 20.207031 0 18 L 0 10 C 0 7.789063 1.792969 6 4 6 L 14 6 C 14 4.894531 14.894531 4 16 4 L 16 2 L 5 2 C 4.445313 2 4 1.554688 4 1 C 4 0.445313 4.445313 0 5 0 L 17 0 C 17.554688 0 18 0.445313 18 1 L 18 4 C 19.105469 4 20 4.894531 20 6 C 22.210938 6 24 7.789063 24 10 M 26 10 L 32 6 L 32 22 L 26 18 "/>
</svg>
