<svg width="100" height="100" viewBox="0 0 100 100" fill="none" xmlns="http://www.w3.org/2000/svg">
<path d="M32.5909 90.6263C32.532 76.0088 31.4879 61.4165 31.0921 46.8033C31.0584 45.3718 31.029 43.9362 31.0079 42.5047L31.6226 44.0372C33.896 49.7293 36.2663 55.2487 39.365 60.5408C42.4426 65.7782 43.9919 71.4029 45.7685 77.1245C45.0991 77.8907 44.6907 78.7664 44.9434 79.6337C44.8044 80.2652 45.1918 80.6652 45.8359 80.922C48.0967 82.8586 52.3616 81.8945 54.7319 80.8883C55.7433 80.4612 56.7226 79.9617 57.6621 79.3937C58.883 78.6317 60.7944 76.9855 60.2429 75.2804L59.9398 74.291C61.607 69.7947 62.4574 65.1172 63.3626 60.364C64.3309 55.2866 66.137 50.4913 67.96 45.6918C68.1411 47.8853 68.3305 50.0871 68.5031 52.2596C69.2357 61.2987 68.621 70.2367 68.5368 79.2969C68.4869 82.228 68.7466 85.1562 69.3115 88.0328C69.5599 89.2411 70.6166 94.4364 70.3008 94.6848C68.1284 96.6888 68.7599 99.1517 71.6733 99.7832C74.9193 100.495 79.0536 99.4128 81.4955 97.1519C85.7435 93.2197 83.7311 87.0645 82.7754 82.1134C81.1545 73.8069 83.0996 64.511 82.8469 56.0571C82.5564 46.5422 81.0366 37.099 81.1671 27.5589C81.2639 19.8502 82.548 11.9225 79.8915 4.52536C80.0557 3.68334 80.2283 2.84974 80.384 1.9993C81.0703 -1.70139 68.7894 0.256313 66.8612 3.64966C65.6402 4.63903 65.0171 5.8347 65.5434 7.043C65.6739 7.34192 65.7834 7.65768 65.8971 7.96502C63.5731 19.3281 60.3355 30.3333 56.6054 41.3512C55.1781 45.5655 53.4562 49.6745 51.9953 53.8889C49.9323 49.9608 47.8441 46.096 46.1685 41.9027C41.3058 29.7313 36.9105 17.4293 30.97 5.71261C31.6436 0.285783 19.6112 0.858359 17.2409 5.79681C14.3696 11.8004 14.7485 17.863 15.6873 24.2918C16.7567 31.5374 16.9419 38.6525 17.0346 45.9612C17.1988 60.0525 18.2976 74.1226 18.5123 88.2307C17.2577 89.6243 16.8746 91.3504 18.1839 93.106C18.7565 93.8722 19.4722 94.4575 20.2132 95.0427C23.396 97.7035 32.612 95.5184 32.5909 90.6263Z" fill="#63D1BB"/>
</svg>
